<?xml version="1.0" encoding="iso-8859-1"?>
<!-- Uploaded to: SVG Repo, www.svgrepo.com, Generator: SVG Repo Mixer Tools -->
<svg fill="#000000" height="800px" width="800px" version="1.1" id="Layer_1" xmlns="http://www.w3.org/2000/svg" xmlns:xlink="http://www.w3.org/1999/xlink" 
	 viewBox="0 0 512 512" xml:space="preserve">
<g>
	<g>
		<path d="M456.447,194.207l-18.097,18.097l-26.601-26.602l26.592-26.593l23.899,23.899l10.754-10.754l-23.899-23.899l23.144-23.144
			l-10.754-10.754l-23.144,23.144l-26.592-26.591l33.882-33.882l-10.755-10.754l-33.882,33.882l-26.593-26.593l23.145-23.144
			l-10.754-10.754l-23.144,23.144l-23.896-23.895l-10.754,10.754l23.895,23.895l-26.592,26.592l-26.601-26.6l18.097-18.097
			l-10.754-10.754l-18.097,18.097l-8.353-8.354l-10.754,10.754l8.354,8.354L251.6,100.247l-8.353-8.353l-10.754,10.754l8.353,8.353
			l-26.592,26.593l-8.354-8.354l-10.754,10.754l8.354,8.354l-18.113,18.113l10.755,10.754l18.113-18.113l26.6,26.6l-26.593,26.593
			l-23.896-23.896l-10.754,10.754l23.896,23.896l-23.136,23.135l10.754,10.754l23.136-23.135l26.593,26.592l-33.88,33.88
			l10.754,10.754l33.88-33.88l26.592,26.593l-23.136,23.136l10.755,10.753l23.136-23.136l23.899,23.898l10.754-10.754
			l-23.899-23.898l26.593-26.593l26.601,26.601l-18.114,18.113l10.754,10.754l18.114-18.113l8.353,8.353l10.754-10.754l-8.353-8.353
			l26.592-26.592l8.353,8.353l10.754-10.754l-8.353-8.353l26.592-26.592l8.353,8.353l10.754-10.754l-8.353-8.352l18.097-18.097
			L456.447,194.207z M400.997,121.76l26.591,26.592l-26.591,26.592l-26.593-26.592L400.997,121.76z M390.242,185.7l-26.591,26.592
			l-26.592-26.593l26.591-26.592L390.242,185.7z M363.65,84.413l26.592,26.593l-26.592,26.591l-26.592-26.592L363.65,84.413z
			 M326.304,121.76l26.592,26.592l-26.592,26.592l-26.592-26.592L326.304,121.76z M315.549,185.698l-26.592,26.593l-26.593-26.593
			l26.593-26.592L315.549,185.698z M288.947,84.405l26.601,26.6l-26.591,26.592l-26.601-26.601L288.947,84.405z M225.009,148.344
			l26.592-26.592l26.601,26.601l-26.592,26.592L225.009,148.344z M225.017,223.046l26.592-26.593l26.593,26.592l-26.592,26.592
			L225.017,223.046z M288.957,286.985l-26.593-26.593l26.593-26.593l26.593,26.593L288.957,286.985z M299.711,223.045l26.593-26.592
			l26.592,26.592l-26.591,26.592L299.711,223.045z M363.66,286.994l-26.601-26.601l26.592-26.593l26.601,26.601L363.66,286.994z
			 M401.007,249.648l-26.602-26.602l26.592-26.592l26.601,26.602L401.007,249.648z"/>
	</g>
</g>
<g>
	<g>
		<path d="M469.708,42.294c-31.7-31.699-76.499-46.37-126.13-41.315c-49.056,4.997-97.056,28.733-135.162,66.836
			c-38.101,38.102-61.836,86.103-66.833,135.157c-2.599,25.513,0.028,49.741,7.488,71.575l-34.35,81.263l-7.263-7.263L0,456.007
			l55.995,55.992l107.456-107.457l-7.261-7.261l81.432-34.423c15.927,5.434,33.122,8.351,51.024,8.516l0.141-15.208
			c-37.846-0.349-70.741-13.424-95.131-37.815c-59.074-59.073-47.628-166.638,25.513-239.781
			C292.318,5.424,399.885-6.024,458.954,53.048c59.073,59.077,47.623,166.644-25.522,239.785
			c-34.734,34.735-78.365,56.793-122.86,62.115l-2.357,0.221l1.417,15.143l2.453-0.23l0.191-0.021
			c47.901-5.705,94.748-29.313,131.909-66.474c38.103-38.102,61.84-86.103,66.836-135.16
			C516.079,118.789,501.406,73.996,469.708,42.294z M55.995,490.491l-34.488-34.484l13.424-13.424l34.487,34.487L55.995,490.491z
			 M80.171,466.313l-34.487-34.487l13.423-13.421l34.486,34.487L80.171,466.313z M104.348,442.138L69.861,407.65l13.421-13.42
			l34.487,34.486L104.348,442.138z M128.524,417.962l-34.488-34.486l13.422-13.423l34.487,34.487L128.524,417.962z M157.346,294.031
			c6.635,12.899,15.176,24.691,25.556,35.072c10.294,10.294,22.158,18.839,35.195,25.496l-73.511,31.074l-18.258-18.258
			L157.346,294.031z"/>
	</g>
</g>
</svg>