<?xml version="1.0" encoding="iso-8859-1"?>
<!-- Uploaded to: SVG Repo, www.svgrepo.com, Generator: SVG Repo Mixer Tools -->
<svg height="800px" width="800px" version="1.1" id="Layer_1" xmlns="http://www.w3.org/2000/svg" xmlns:xlink="http://www.w3.org/1999/xlink" 
	 viewBox="0 0 512 512" xml:space="preserve">
<path style="fill:#CEE8FA;" d="M396.77,299.872L212.162,115.264l62.441-62.441c50.979-50.979,133.629-50.979,184.608,0l0,0
	c50.979,50.979,50.979,133.629,0,184.608L396.77,299.872z"/>
<path style="fill:#2D527C;" d="M469.526,42.506C442.116,15.096,405.671,0,366.907,0s-75.21,15.096-102.621,42.506l-59.14,59.14
	c-0.373,0.185-0.741,0.387-1.102,0.605L48.521,196.705c-0.525,0.32-1.031,0.673-1.514,1.056
	c-28.156,22.42-45.23,51.641-46.842,80.171c-1.329,23.521,7.578,45.564,25.761,63.747c2.849,2.848,6.583,4.273,10.316,4.273
	c3.733,0,7.467-1.425,10.316-4.273c5.697-5.697,5.697-14.935,0-20.634c-12.314-12.312-18.122-26.264-17.262-41.468
	c1.132-20.021,13.943-41.275,35.184-58.428L209.4,133.136l23.585,23.587c0.004,0.004,0.01,0.009,0.015,0.013l23.245,23.245
	L104.212,304.92c-16.241,12.976-26.226,32.31-27.399,53.069c-1.176,20.799,6.597,41.176,21.327,55.905
	c13.829,13.829,32.206,21.444,51.746,21.444c22.405,0,43.258-10.027,57.23-27.516l124.937-152.035l23.245,23.245
	c0.004,0.004,0.009,0.01,0.013,0.015l23.587,23.585l-88.014,144.922c-17.153,21.242-38.407,34.052-58.428,35.184
	c-15.195,0.832-29.156-4.95-41.468-17.262c-5.697-5.694-14.932-5.696-20.634,0c-5.697,5.697-5.697,14.935,0,20.634
	C187.353,503.108,207.724,512,229.527,512c1.519,0,3.045-0.042,4.577-0.13c28.53-1.612,57.751-18.688,80.171-46.842
	c0.384-0.483,0.737-0.989,1.056-1.514l94.454-155.524c0.219-0.362,0.422-0.729,0.605-1.102l59.14-59.14
	C526.112,191.161,526.112,99.092,469.526,42.506z M184.503,389.38c-0.048,0.057-0.095,0.115-0.143,0.174
	c-8.404,10.554-20.969,16.607-34.476,16.607c-11.746,0-22.795-4.581-31.112-12.899c-8.859-8.859-13.535-21.115-12.827-33.626
	c0.706-12.509,6.733-24.16,16.536-31.963c0.058-0.047,0.117-0.093,0.174-0.143l154.323-126.818l34.342,34.342L184.503,389.38z
	 M396.77,279.238l-55.46-55.46l-53.055-53.055l-55.46-55.46l52.125-52.125c21.9-21.897,51.017-33.958,81.987-33.958
	s60.088,12.061,81.987,33.961c45.207,45.207,45.207,118.766,0,163.974L396.77,279.238z"/>
</svg>